<svg width="156" height="44" viewBox="0 0 156 44" fill="none" xmlns="http://www.w3.org/2000/svg">
<path d="M32.7814 0.00012207H61.4972L59.4057 13.3496H30.71L32.7814 0.00012207Z" fill="#0BBA60"/>
<path d="M4.08827 0L26.7824 0V13.3495H0L4.08827 0Z" fill="#0BBA60"/>
<path d="M31.2041 0L24.4609 43.3858L11.1487 43.3858L17.8546 -5.83524e-07L31.2041 0Z" fill="#0BBA60"/>
<path d="M30.2858 15.1848H59.0735L57.0766 28.5343L28.2891 28.4508L30.2858 15.1848Z" fill="#0BBA60"/>
<path d="M28.1218 30.0364L56.9094 30.0364L54.7462 43.3858H26.125L28.1218 30.0364Z" fill="#0BBA60"/>
<path d="M64.0042 16.5674H72.8007L72.4809 18.611H65.7635L65.0705 23.1248H69.993L69.6731 25.1684H64.7506L64.484 26.9633H71.2014L70.8815 29.0069H62.085L64.0042 16.5674Z" fill="white"/>
<path d="M73.7101 20.0505H81.2627L79.8766 29.0069H77.7796L78.8458 22.0763H75.4872L74.4209 29.0069H72.324L73.7101 20.0505Z" fill="white"/>
<path d="M81.6114 30.4108H88.1688L88.5065 28.2428C88.0563 28.5271 87.5824 28.7463 87.0848 28.9003C86.5872 29.0543 86.0837 29.1313 85.5743 29.1313C84.8753 29.1313 84.2711 29.001 83.7617 28.7404C83.2641 28.4797 82.8613 28.1362 82.5533 27.7097C82.2453 27.2713 82.0498 26.8448 81.9668 26.4302C81.8839 26.0037 81.8424 25.6423 81.8424 25.3461C81.8424 25.0737 81.8661 24.8012 81.9135 24.5287C81.9965 23.9482 82.1742 23.3795 82.4467 22.8227C82.731 22.2659 83.0923 21.7742 83.5307 21.3477C83.969 20.9094 84.4784 20.5599 85.059 20.2992C85.6395 20.0268 86.2851 19.8905 86.996 19.8905C87.5409 19.8905 88.0504 19.9794 88.5243 20.1571C88.9981 20.3348 89.4187 20.5836 89.786 20.9035L90.3724 20.0505H92.5938L92.2739 22.0941H91.5275L89.9281 32.4189H81.2916L81.6114 30.4108ZM85.8764 27.141C86.2318 27.141 86.5754 27.0699 86.9071 26.9277C87.2388 26.7737 87.535 26.5783 87.7957 26.3413C88.0563 26.0925 88.2695 25.8141 88.4354 25.5061C88.6131 25.1862 88.7316 24.8604 88.7908 24.5287C88.8145 24.4102 88.8264 24.2917 88.8264 24.1733C88.8264 23.9719 88.7908 23.7468 88.7197 23.498C88.6605 23.2373 88.5361 22.9826 88.3465 22.7338C88.1688 22.4851 87.9378 22.2836 87.6535 22.1296C87.3692 21.9756 87.0493 21.8986 86.6939 21.8986C86.3385 21.8986 86.0067 21.9756 85.6987 22.1296C85.3907 22.2836 85.1123 22.4851 84.8635 22.7338C84.6147 22.9826 84.4133 23.267 84.2593 23.5868C84.1053 23.8949 84.0046 24.2088 83.9572 24.5287C83.9335 24.6827 83.9216 24.8308 83.9216 24.973C83.9216 25.1388 83.9394 25.3461 83.9749 25.5949C84.0223 25.8319 84.129 26.0747 84.2948 26.3235C84.4725 26.5723 84.6917 26.7737 84.9523 26.9277C85.213 27.0699 85.521 27.141 85.8764 27.141Z" fill="white"/>
<path d="M93.8329 17.296H95.912L95.6099 19.3041H93.5308L93.8329 17.296ZM92.5534 25.6838C92.6955 24.7716 92.8377 23.8652 92.9799 22.9649C93.1339 22.0526 93.2879 21.1463 93.4419 20.2459L93.4774 20.0327H95.5211L94.135 29.0069H92.038L92.5534 25.6838Z" fill="white"/>
<path d="M97.1384 20.0505H104.691L103.305 29.0069H101.208L102.274 22.0763H98.9154L97.8492 29.0069H95.7522L97.1384 20.0505Z" fill="white"/>
<path d="M113.747 26.0392L113.57 26.3235C113.356 26.7145 113.09 27.0818 112.77 27.4253C112.45 27.7689 112.095 28.0651 111.704 28.3139C111.325 28.5627 110.91 28.7641 110.46 28.9181C110.021 29.0602 109.559 29.1313 109.074 29.1313C108.398 29.1313 107.806 28.9951 107.297 28.7226C106.787 28.4501 106.372 28.1006 106.053 27.6741C105.733 27.2358 105.525 26.7974 105.431 26.3591C105.336 25.9207 105.288 25.5357 105.288 25.204C105.288 24.9789 105.306 24.7479 105.342 24.5109C105.425 23.9423 105.614 23.3854 105.91 22.8405C106.207 22.2836 106.58 21.792 107.03 21.3655C107.492 20.9271 108.013 20.5717 108.594 20.2992C109.186 20.0268 109.82 19.8905 110.495 19.8905C111.171 19.8905 111.763 20.0268 112.272 20.2992C112.782 20.5717 113.191 20.9271 113.499 21.3655C113.818 21.792 114.026 22.2244 114.121 22.6628C114.215 23.1011 114.263 23.4861 114.263 23.8179C114.263 24.043 114.245 24.274 114.209 24.5109C114.174 24.7597 114.115 25.0085 114.032 25.2573L113.978 25.435H107.492C107.575 25.9089 107.776 26.3176 108.096 26.6612C108.416 26.9929 108.843 27.1588 109.376 27.1588C109.755 27.1588 110.11 27.0699 110.442 26.8922C110.786 26.7026 111.082 26.4539 111.331 26.1458L111.419 26.0392H113.747ZM112.059 23.5691C111.964 23.107 111.757 22.7101 111.437 22.3784C111.129 22.0467 110.714 21.8808 110.193 21.8808C109.672 21.8808 109.198 22.0467 108.772 22.3784C108.345 22.7101 108.013 23.107 107.776 23.5691H112.059Z" fill="white"/>
<path d="M123.691 26.0392L123.514 26.3235C123.3 26.7145 123.034 27.0818 122.714 27.4253C122.394 27.7689 122.039 28.0651 121.648 28.3139C121.269 28.5627 120.854 28.7641 120.404 28.9181C119.965 29.0602 119.503 29.1313 119.018 29.1313C118.342 29.1313 117.75 28.9951 117.241 28.7226C116.731 28.4501 116.316 28.1006 115.997 27.6741C115.677 27.2358 115.469 26.7974 115.375 26.3591C115.28 25.9207 115.232 25.5357 115.232 25.204C115.232 24.9789 115.25 24.7479 115.286 24.5109C115.369 23.9423 115.558 23.3854 115.854 22.8405C116.151 22.2836 116.524 21.792 116.974 21.3655C117.436 20.9271 117.957 20.5717 118.538 20.2992C119.13 20.0268 119.764 19.8905 120.439 19.8905C121.115 19.8905 121.707 20.0268 122.216 20.2992C122.726 20.5717 123.135 20.9271 123.443 21.3655C123.762 21.792 123.97 22.2244 124.065 22.6628C124.159 23.1011 124.207 23.4861 124.207 23.8179C124.207 24.043 124.189 24.274 124.153 24.5109C124.118 24.7597 124.059 25.0085 123.976 25.2573L123.922 25.435H117.436C117.519 25.9089 117.72 26.3176 118.04 26.6612C118.36 26.9929 118.787 27.1588 119.32 27.1588C119.699 27.1588 120.054 27.0699 120.386 26.8922C120.73 26.7026 121.026 26.4539 121.275 26.1458L121.363 26.0392H123.691ZM122.003 23.5691C121.908 23.107 121.701 22.7101 121.381 22.3784C121.073 22.0467 120.658 21.8808 120.137 21.8808C119.616 21.8808 119.142 22.0467 118.716 22.3784C118.289 22.7101 117.957 23.107 117.72 23.5691H122.003Z" fill="white"/>
<path d="M126.189 20.0505H131.467L131.147 22.0763H127.984L126.918 29.0069H124.803L126.189 20.0505Z" fill="white"/>
<path d="M133.192 17.296H135.272L134.969 19.3041H132.89L133.192 17.296ZM131.913 25.6838C132.055 24.7716 132.197 23.8652 132.339 22.9649C132.493 22.0526 132.647 21.1463 132.801 20.2459L132.837 20.0327H134.881L133.494 29.0069H131.397L131.913 25.6838Z" fill="white"/>
<path d="M136.498 20.0505H144.05L142.664 29.0069H140.567L141.634 22.0763H138.275L137.209 29.0069H135.112L136.498 20.0505Z" fill="white"/>
<path d="M144.399 30.4108H150.957L151.294 28.2428C150.844 28.5271 150.37 28.7463 149.873 28.9003C149.375 29.0543 148.871 29.1313 148.362 29.1313C147.663 29.1313 147.059 29.001 146.549 28.7404C146.052 28.4797 145.649 28.1362 145.341 27.7097C145.033 27.2713 144.838 26.8448 144.755 26.4302C144.672 26.0037 144.63 25.6423 144.63 25.3461C144.63 25.0737 144.654 24.8012 144.701 24.5287C144.784 23.9482 144.962 23.3795 145.234 22.8227C145.519 22.2659 145.88 21.7742 146.318 21.3477C146.757 20.9094 147.266 20.5599 147.847 20.2992C148.427 20.0268 149.073 19.8905 149.784 19.8905C150.329 19.8905 150.838 19.9794 151.312 20.1571C151.786 20.3348 152.206 20.5836 152.574 20.9035L153.16 20.0505H155.381L155.062 22.0941H154.315L152.716 32.4189H144.079L144.399 30.4108ZM148.664 27.141C149.02 27.141 149.363 27.0699 149.695 26.9277C150.027 26.7737 150.323 26.5783 150.583 26.3413C150.844 26.0925 151.057 25.8141 151.223 25.5061C151.401 25.1862 151.519 24.8604 151.579 24.5287C151.602 24.4102 151.614 24.2917 151.614 24.1733C151.614 23.9719 151.579 23.7468 151.507 23.498C151.448 23.2373 151.324 22.9826 151.134 22.7338C150.957 22.4851 150.726 22.2836 150.441 22.1296C150.157 21.9756 149.837 21.8986 149.482 21.8986C149.126 21.8986 148.794 21.9756 148.486 22.1296C148.178 22.2836 147.9 22.4851 147.651 22.7338C147.402 22.9826 147.201 23.267 147.047 23.5868C146.893 23.8949 146.792 24.2088 146.745 24.5287C146.721 24.6827 146.709 24.8308 146.709 24.973C146.709 25.1388 146.727 25.3461 146.763 25.5949C146.81 25.8319 146.917 26.0747 147.083 26.3235C147.26 26.5723 147.479 26.7737 147.74 26.9277C148.001 27.0699 148.309 27.141 148.664 27.141Z" fill="white"/>
<path d="M68.9886 3.22052H65.6299L65.9498 1.17689H74.7641L74.4442 3.22052H71.0855L69.4861 13.6164H67.3892L68.9886 3.22052Z" fill="white"/>
<path d="M76.1925 1.17689H84.9891L84.6692 3.22052H77.9518L77.2588 7.7343H82.1813L81.8614 9.77794H76.9389L76.6723 11.5728H83.3897L83.0698 13.6164H74.2733L76.1925 1.17689Z" fill="white"/>
<path d="M89.186 7.36111L86.396 1.17689H88.7773L90.6965 5.45964L93.8953 1.17689H96.2588L91.5495 7.37888L94.3928 13.6164H92.0116L90.0745 9.29813L86.8047 13.6164H84.4234L89.186 7.36111Z" fill="white"/>
<path d="M95.3869 8.92494H97.4483L97.4305 9.12042C97.4305 9.2152 97.4305 9.30997 97.4305 9.40475C97.4305 10.0682 97.5846 10.6191 97.8926 11.0574C98.2125 11.4839 98.8167 11.6972 99.7052 11.6972C100.037 11.6972 100.351 11.6735 100.647 11.6261C100.955 11.5669 101.228 11.478 101.465 11.3595C101.701 11.2292 101.903 11.0634 102.069 10.862C102.235 10.6487 102.341 10.3881 102.389 10.08C102.412 9.96157 102.424 9.85495 102.424 9.76017C102.424 9.65354 102.406 9.52915 102.371 9.38698C102.347 9.23297 102.258 9.08488 102.104 8.94271C101.82 8.63469 101.441 8.40367 100.967 8.24965C100.493 8.08379 100.019 7.94755 99.5453 7.84092C98.9766 7.71061 98.4435 7.52697 97.9459 7.29003C97.472 7.05309 97.087 6.71544 96.7908 6.2771C96.6012 6.01646 96.5005 5.78544 96.4887 5.58404C96.4768 5.37079 96.4709 5.2227 96.4709 5.13977C96.4709 4.90282 96.4887 4.67773 96.5242 4.46448C96.619 3.89581 96.8026 3.39823 97.0751 2.97173C97.3595 2.54523 97.7089 2.18982 98.1236 1.90549C98.5382 1.62115 99.0062 1.40791 99.5275 1.26574C100.049 1.12357 100.594 1.05249 101.162 1.05249C102.477 1.05249 103.431 1.36052 104.023 1.97657C104.628 2.58078 104.93 3.34492 104.93 4.269C104.93 4.45855 104.918 4.65403 104.894 4.85543L104.876 5.05091H102.815V4.89098C102.791 4.28677 102.631 3.83658 102.335 3.5404C102.051 3.23237 101.571 3.07836 100.896 3.07836C100.635 3.07836 100.375 3.10205 100.114 3.14944C99.8651 3.19683 99.6341 3.27384 99.4209 3.38046C99.2195 3.48709 99.0477 3.62333 98.9055 3.78919C98.7752 3.95505 98.6923 4.16237 98.6567 4.41117C98.6449 4.48225 98.639 4.54741 98.639 4.60664C98.639 4.7962 98.6982 4.96798 98.8167 5.122C98.9351 5.27601 99.1306 5.41818 99.4031 5.54849C99.5453 5.61958 99.6933 5.68474 99.8474 5.74397C100.013 5.80321 100.191 5.86244 100.38 5.92168C100.57 5.98092 100.766 6.03423 100.967 6.08162C101.168 6.12901 101.37 6.18232 101.571 6.24156C101.962 6.36003 102.353 6.50812 102.744 6.68582C103.147 6.85168 103.496 7.07678 103.792 7.36111C104.089 7.6336 104.29 7.92978 104.397 8.24965C104.515 8.56953 104.574 8.8894 104.574 9.20927C104.574 9.41068 104.557 9.62985 104.521 9.86679C104.497 10.0445 104.456 10.2281 104.397 10.4177C104.337 10.6072 104.278 10.7909 104.219 10.9686C104.006 11.5017 103.704 11.9578 103.313 12.3369C102.934 12.716 102.477 13.0359 101.944 13.2966C101.542 13.4861 101.139 13.6046 100.736 13.652C100.333 13.7112 99.9421 13.7408 99.563 13.7408C98.556 13.7408 97.6734 13.5453 96.9152 13.1544C96.157 12.7634 95.6475 12.1178 95.3869 11.2174C95.2921 10.8975 95.2447 10.5835 95.2447 10.2755C95.2447 10.24 95.2447 10.1334 95.2447 9.95565C95.2566 9.76609 95.2921 9.49361 95.3514 9.13819L95.3869 8.92494Z" fill="white"/>
<path d="M109.559 1.17689H113.291L114.766 13.6164H112.58L112.118 9.77794H108.048L106.431 13.6164H104.245L109.559 1.17689ZM111.887 7.7343L111.354 3.22052H110.838L108.937 7.7343H111.887Z" fill="white"/>
<path d="M115.709 8.92494H117.77L117.752 9.12042C117.752 9.2152 117.752 9.30997 117.752 9.40475C117.752 10.0682 117.906 10.6191 118.214 11.0574C118.534 11.4839 119.139 11.6972 120.027 11.6972C120.359 11.6972 120.673 11.6735 120.969 11.6261C121.277 11.5669 121.549 11.478 121.786 11.3595C122.023 11.2292 122.225 11.0634 122.391 10.862C122.556 10.6487 122.663 10.3881 122.71 10.08C122.734 9.96157 122.746 9.85495 122.746 9.76017C122.746 9.65354 122.728 9.52915 122.693 9.38698C122.669 9.23297 122.58 9.08488 122.426 8.94271C122.142 8.63469 121.763 8.40367 121.289 8.24965C120.815 8.08379 120.341 7.94755 119.867 7.84092C119.298 7.71061 118.765 7.52697 118.268 7.29003C117.794 7.05309 117.409 6.71544 117.113 6.2771C116.923 6.01646 116.822 5.78544 116.811 5.58404C116.799 5.37079 116.793 5.2227 116.793 5.13977C116.793 4.90282 116.811 4.67773 116.846 4.46448C116.941 3.89581 117.124 3.39823 117.397 2.97173C117.681 2.54523 118.031 2.18982 118.445 1.90549C118.86 1.62115 119.328 1.40791 119.849 1.26574C120.371 1.12357 120.916 1.05249 121.484 1.05249C122.799 1.05249 123.753 1.36052 124.345 1.97657C124.95 2.58078 125.252 3.34492 125.252 4.269C125.252 4.45855 125.24 4.65403 125.216 4.85543L125.198 5.05091H123.137V4.89098C123.113 4.28677 122.953 3.83658 122.657 3.5404C122.373 3.23237 121.893 3.07836 121.218 3.07836C120.957 3.07836 120.696 3.10205 120.436 3.14944C120.187 3.19683 119.956 3.27384 119.743 3.38046C119.541 3.48709 119.37 3.62333 119.227 3.78919C119.097 3.95505 119.014 4.16237 118.979 4.41117C118.967 4.48225 118.961 4.54741 118.961 4.60664C118.961 4.7962 119.02 4.96798 119.139 5.122C119.257 5.27601 119.452 5.41818 119.725 5.54849C119.867 5.61958 120.015 5.68474 120.169 5.74397C120.335 5.80321 120.513 5.86244 120.702 5.92168C120.892 5.98092 121.087 6.03423 121.289 6.08162C121.49 6.12901 121.692 6.18232 121.893 6.24156C122.284 6.36003 122.675 6.50812 123.066 6.68582C123.469 6.85168 123.818 7.07678 124.114 7.36111C124.41 7.6336 124.612 7.92978 124.719 8.24965C124.837 8.56953 124.896 8.8894 124.896 9.20927C124.896 9.41068 124.878 9.62985 124.843 9.86679C124.819 10.0445 124.778 10.2281 124.719 10.4177C124.659 10.6072 124.6 10.7909 124.541 10.9686C124.328 11.5017 124.025 11.9578 123.635 12.3369C123.255 12.716 122.799 13.0359 122.266 13.2966C121.863 13.4861 121.461 13.6046 121.058 13.652C120.655 13.7112 120.264 13.7408 119.885 13.7408C118.878 13.7408 117.995 13.5453 117.237 13.1544C116.479 12.7634 115.969 12.1178 115.709 11.2174C115.614 10.8975 115.567 10.5835 115.567 10.2755C115.567 10.24 115.567 10.1334 115.567 9.95565C115.578 9.76609 115.614 9.49361 115.673 9.13819L115.709 8.92494Z" fill="white"/>
</svg>
