<svg width="156" height="44" viewBox="0 0 156 44" fill="none" xmlns="http://www.w3.org/2000/svg">
<path d="M32.7814 0H61.4972L59.4057 13.3495H30.71L32.7814 0Z" fill="#0BBA60"/>
<path d="M4.08827 0L26.7824 0V13.3495H0L4.08827 0Z" fill="#0BBA60"/>
<path d="M31.2041 0L24.4609 43.3858L11.1487 43.3858L17.8546 -5.83524e-07L31.2041 0Z" fill="#0BBA60"/>
<path d="M30.2858 15.1846H59.0735L57.0766 28.534L28.2891 28.4506L30.2858 15.1846Z" fill="#0BBA60"/>
<path d="M28.1218 30.0361L56.9094 30.0361L54.7462 43.3856H26.125L28.1218 30.0361Z" fill="#0BBA60"/>
<path d="M64.0042 16.5679H72.8007L72.4809 18.6115H65.7635L65.0705 23.1253H69.993L69.6731 25.1689H64.7506L64.484 26.9638H71.2014L70.8815 29.0074H62.085L64.0042 16.5679Z" fill="#313131"/>
<path d="M73.7101 20.0509H81.2627L79.8766 29.0074H77.7796L78.8458 22.0768H75.4872L74.4209 29.0074H72.324L73.7101 20.0509Z" fill="#313131"/>
<path d="M81.6114 30.4113H88.1688L88.5065 28.2433C88.0563 28.5276 87.5824 28.7468 87.0848 28.9008C86.5872 29.0548 86.0837 29.1318 85.5743 29.1318C84.8753 29.1318 84.2711 29.0015 83.7617 28.7408C83.2641 28.4802 82.8613 28.1366 82.5533 27.7101C82.2453 27.2718 82.0498 26.8453 81.9668 26.4306C81.8839 26.0042 81.8424 25.6428 81.8424 25.3466C81.8424 25.0741 81.8661 24.8017 81.9135 24.5292C81.9965 23.9487 82.1742 23.38 82.4467 22.8232C82.731 22.2664 83.0923 21.7747 83.5307 21.3482C83.969 20.9099 84.4784 20.5604 85.059 20.2997C85.6395 20.0272 86.2851 19.891 86.996 19.891C87.5409 19.891 88.0504 19.9799 88.5243 20.1576C88.9981 20.3353 89.4187 20.5841 89.786 20.9039L90.3724 20.0509H92.5938L92.2739 22.0946H91.5275L89.9281 32.4194H81.2916L81.6114 30.4113ZM85.8764 27.1415C86.2318 27.1415 86.5754 27.0704 86.9071 26.9282C87.2388 26.7742 87.535 26.5787 87.7957 26.3418C88.0563 26.093 88.2695 25.8146 88.4354 25.5066C88.6131 25.1867 88.7316 24.8609 88.7908 24.5292C88.8145 24.4107 88.8264 24.2922 88.8264 24.1738C88.8264 23.9724 88.7908 23.7473 88.7197 23.4985C88.6605 23.2378 88.5361 22.9831 88.3465 22.7343C88.1688 22.4855 87.9378 22.2841 87.6535 22.1301C87.3692 21.9761 87.0493 21.8991 86.6939 21.8991C86.3385 21.8991 86.0067 21.9761 85.6987 22.1301C85.3907 22.2841 85.1123 22.4855 84.8635 22.7343C84.6147 22.9831 84.4133 23.2675 84.2593 23.5873C84.1053 23.8954 84.0046 24.2093 83.9572 24.5292C83.9335 24.6832 83.9216 24.8313 83.9216 24.9734C83.9216 25.1393 83.9394 25.3466 83.9749 25.5954C84.0223 25.8324 84.129 26.0752 84.2948 26.324C84.4725 26.5728 84.6917 26.7742 84.9523 26.9282C85.213 27.0704 85.521 27.1415 85.8764 27.1415Z" fill="#313131"/>
<path d="M93.8329 17.2965H95.912L95.6099 19.3046H93.5308L93.8329 17.2965ZM92.5534 25.6843C92.6955 24.772 92.8377 23.8657 92.9799 22.9653C93.1339 22.0531 93.2879 21.1468 93.4419 20.2464L93.4774 20.0332H95.5211L94.135 29.0074H92.038L92.5534 25.6843Z" fill="#313131"/>
<path d="M97.1384 20.0509H104.691L103.305 29.0074H101.208L102.274 22.0768H98.9154L97.8492 29.0074H95.7522L97.1384 20.0509Z" fill="#313131"/>
<path d="M113.747 26.0397L113.57 26.324C113.356 26.715 113.09 27.0822 112.77 27.4258C112.45 27.7694 112.095 28.0656 111.704 28.3144C111.325 28.5631 110.91 28.7645 110.46 28.9186C110.021 29.0607 109.559 29.1318 109.074 29.1318C108.398 29.1318 107.806 28.9956 107.297 28.7231C106.787 28.4506 106.372 28.1011 106.053 27.6746C105.733 27.2363 105.525 26.7979 105.431 26.3596C105.336 25.9212 105.288 25.5362 105.288 25.2045C105.288 24.9794 105.306 24.7483 105.342 24.5114C105.425 23.9427 105.614 23.3859 105.91 22.841C106.207 22.2841 106.58 21.7925 107.03 21.366C107.492 20.9276 108.013 20.5722 108.594 20.2997C109.186 20.0272 109.82 19.891 110.495 19.891C111.171 19.891 111.763 20.0272 112.272 20.2997C112.782 20.5722 113.191 20.9276 113.499 21.366C113.818 21.7925 114.026 22.2249 114.121 22.6632C114.215 23.1016 114.263 23.4866 114.263 23.8183C114.263 24.0434 114.245 24.2745 114.209 24.5114C114.174 24.7602 114.115 25.009 114.032 25.2578L113.978 25.4355H107.492C107.575 25.9094 107.776 26.3181 108.096 26.6617C108.416 26.9934 108.843 27.1593 109.376 27.1593C109.755 27.1593 110.11 27.0704 110.442 26.8927C110.786 26.7031 111.082 26.4543 111.331 26.1463L111.419 26.0397H113.747ZM112.059 23.5696C111.964 23.1075 111.757 22.7106 111.437 22.3789C111.129 22.0472 110.714 21.8813 110.193 21.8813C109.672 21.8813 109.198 22.0472 108.772 22.3789C108.345 22.7106 108.013 23.1075 107.776 23.5696H112.059Z" fill="#313131"/>
<path d="M123.691 26.0397L123.514 26.324C123.3 26.715 123.034 27.0822 122.714 27.4258C122.394 27.7694 122.039 28.0656 121.648 28.3144C121.269 28.5631 120.854 28.7645 120.404 28.9186C119.965 29.0607 119.503 29.1318 119.018 29.1318C118.342 29.1318 117.75 28.9956 117.241 28.7231C116.731 28.4506 116.316 28.1011 115.997 27.6746C115.677 27.2363 115.469 26.7979 115.375 26.3596C115.28 25.9212 115.232 25.5362 115.232 25.2045C115.232 24.9794 115.25 24.7483 115.286 24.5114C115.369 23.9427 115.558 23.3859 115.854 22.841C116.151 22.2841 116.524 21.7925 116.974 21.366C117.436 20.9276 117.957 20.5722 118.538 20.2997C119.13 20.0272 119.764 19.891 120.439 19.891C121.115 19.891 121.707 20.0272 122.216 20.2997C122.726 20.5722 123.135 20.9276 123.443 21.366C123.762 21.7925 123.97 22.2249 124.065 22.6632C124.159 23.1016 124.207 23.4866 124.207 23.8183C124.207 24.0434 124.189 24.2745 124.153 24.5114C124.118 24.7602 124.059 25.009 123.976 25.2578L123.922 25.4355H117.436C117.519 25.9094 117.72 26.3181 118.04 26.6617C118.36 26.9934 118.787 27.1593 119.32 27.1593C119.699 27.1593 120.054 27.0704 120.386 26.8927C120.73 26.7031 121.026 26.4543 121.275 26.1463L121.363 26.0397H123.691ZM122.003 23.5696C121.908 23.1075 121.701 22.7106 121.381 22.3789C121.073 22.0472 120.658 21.8813 120.137 21.8813C119.616 21.8813 119.142 22.0472 118.716 22.3789C118.289 22.7106 117.957 23.1075 117.72 23.5696H122.003Z" fill="#313131"/>
<path d="M126.189 20.0509H131.467L131.147 22.0768H127.984L126.918 29.0074H124.803L126.189 20.0509Z" fill="#313131"/>
<path d="M133.192 17.2965H135.272L134.969 19.3046H132.89L133.192 17.2965ZM131.913 25.6843C132.055 24.772 132.197 23.8657 132.339 22.9653C132.493 22.0531 132.647 21.1468 132.801 20.2464L132.837 20.0332H134.881L133.494 29.0074H131.397L131.913 25.6843Z" fill="#313131"/>
<path d="M136.498 20.0509H144.05L142.664 29.0074H140.567L141.634 22.0768H138.275L137.209 29.0074H135.112L136.498 20.0509Z" fill="#313131"/>
<path d="M144.399 30.4113H150.957L151.294 28.2433C150.844 28.5276 150.37 28.7468 149.873 28.9008C149.375 29.0548 148.871 29.1318 148.362 29.1318C147.663 29.1318 147.059 29.0015 146.549 28.7408C146.052 28.4802 145.649 28.1366 145.341 27.7101C145.033 27.2718 144.838 26.8453 144.755 26.4306C144.672 26.0042 144.63 25.6428 144.63 25.3466C144.63 25.0741 144.654 24.8017 144.701 24.5292C144.784 23.9487 144.962 23.38 145.234 22.8232C145.519 22.2664 145.88 21.7747 146.318 21.3482C146.757 20.9099 147.266 20.5604 147.847 20.2997C148.427 20.0272 149.073 19.891 149.784 19.891C150.329 19.891 150.838 19.9799 151.312 20.1576C151.786 20.3353 152.206 20.5841 152.574 20.9039L153.16 20.0509H155.381L155.062 22.0946H154.315L152.716 32.4194H144.079L144.399 30.4113ZM148.664 27.1415C149.02 27.1415 149.363 27.0704 149.695 26.9282C150.027 26.7742 150.323 26.5787 150.583 26.3418C150.844 26.093 151.057 25.8146 151.223 25.5066C151.401 25.1867 151.519 24.8609 151.579 24.5292C151.602 24.4107 151.614 24.2922 151.614 24.1738C151.614 23.9724 151.579 23.7473 151.507 23.4985C151.448 23.2378 151.324 22.9831 151.134 22.7343C150.957 22.4855 150.726 22.2841 150.441 22.1301C150.157 21.9761 149.837 21.8991 149.482 21.8991C149.126 21.8991 148.794 21.9761 148.486 22.1301C148.178 22.2841 147.9 22.4855 147.651 22.7343C147.402 22.9831 147.201 23.2675 147.047 23.5873C146.893 23.8954 146.792 24.2093 146.745 24.5292C146.721 24.6832 146.709 24.8313 146.709 24.9734C146.709 25.1393 146.727 25.3466 146.763 25.5954C146.81 25.8324 146.917 26.0752 147.083 26.324C147.26 26.5728 147.479 26.7742 147.74 26.9282C148.001 27.0704 148.309 27.1415 148.664 27.1415Z" fill="#313131"/>
<path d="M68.9886 3.22077H65.6299L65.9498 1.17713H74.7641L74.4442 3.22077H71.0855L69.4861 13.6167H67.3892L68.9886 3.22077Z" fill="#313131"/>
<path d="M76.1925 1.17713H84.9891L84.6692 3.22077H77.9518L77.2588 7.73454H82.1813L81.8614 9.77818H76.9389L76.6723 11.573H83.3897L83.0698 13.6167H74.2733L76.1925 1.17713Z" fill="#313131"/>
<path d="M89.186 7.36136L86.396 1.17713H88.7773L90.6965 5.45989L93.8953 1.17713H96.2588L91.5495 7.37913L94.3928 13.6167H92.0116L90.0745 9.29837L86.8047 13.6167H84.4234L89.186 7.36136Z" fill="#313131"/>
<path d="M95.3869 8.92519H97.4483L97.4305 9.12066C97.4305 9.21544 97.4305 9.31022 97.4305 9.405C97.4305 10.0684 97.5846 10.6193 97.8926 11.0577C98.2125 11.4842 98.8167 11.6974 99.7052 11.6974C100.037 11.6974 100.351 11.6737 100.647 11.6263C100.955 11.5671 101.228 11.4783 101.465 11.3598C101.701 11.2295 101.903 11.0636 102.069 10.8622C102.235 10.6489 102.341 10.3883 102.389 10.0803C102.412 9.96181 102.424 9.85519 102.424 9.76041C102.424 9.65379 102.406 9.52939 102.371 9.38723C102.347 9.23321 102.258 9.08512 102.104 8.94296C101.82 8.63493 101.441 8.40391 100.967 8.2499C100.493 8.08404 100.019 7.94779 99.5453 7.84117C98.9766 7.71085 98.4435 7.52722 97.9459 7.29027C97.472 7.05333 97.087 6.71569 96.7908 6.27734C96.6012 6.0167 96.5005 5.78568 96.4887 5.58428C96.4768 5.37103 96.4709 5.22294 96.4709 5.14001C96.4709 4.90307 96.4887 4.67797 96.5242 4.46472C96.619 3.89606 96.8026 3.39848 97.0751 2.97198C97.3595 2.54548 97.7089 2.19006 98.1236 1.90573C98.5382 1.6214 99.0062 1.40815 99.5275 1.26598C100.049 1.12382 100.594 1.05273 101.162 1.05273C102.477 1.05273 103.431 1.36076 104.023 1.97681C104.628 2.58102 104.93 3.34516 104.93 4.26924C104.93 4.4588 104.918 4.65428 104.894 4.85568L104.876 5.05116H102.815V4.89122C102.791 4.28701 102.631 3.83682 102.335 3.54064C102.051 3.23261 101.571 3.0786 100.896 3.0786C100.635 3.0786 100.375 3.1023 100.114 3.14968C99.8651 3.19707 99.6341 3.27408 99.4209 3.3807C99.2195 3.48733 99.0477 3.62357 98.9055 3.78943C98.7752 3.95529 98.6923 4.16262 98.6567 4.41141C98.6449 4.48249 98.639 4.54765 98.639 4.60689C98.639 4.79644 98.6982 4.96823 98.8167 5.12224C98.9351 5.27625 99.1306 5.41842 99.4031 5.54874C99.5453 5.61982 99.6933 5.68498 99.8474 5.74422C100.013 5.80345 100.191 5.86269 100.38 5.92193C100.57 5.98116 100.766 6.03447 100.967 6.08186C101.168 6.12925 101.37 6.18256 101.571 6.2418C101.962 6.36027 102.353 6.50836 102.744 6.68607C103.147 6.85193 103.496 7.07703 103.792 7.36136C104.089 7.63384 104.29 7.93002 104.397 8.2499C104.515 8.56977 104.574 8.88964 104.574 9.20952C104.574 9.41092 104.557 9.63009 104.521 9.86704C104.497 10.0447 104.456 10.2284 104.397 10.4179C104.337 10.6075 104.278 10.7911 104.219 10.9688C104.006 11.5019 103.704 11.9581 103.313 12.3372C102.934 12.7163 102.477 13.0362 101.944 13.2968C101.542 13.4864 101.139 13.6048 100.736 13.6522C100.333 13.7114 99.9421 13.7411 99.563 13.7411C98.556 13.7411 97.6734 13.5456 96.9152 13.1546C96.157 12.7637 95.6475 12.118 95.3869 11.2176C95.2921 10.8977 95.2447 10.5838 95.2447 10.2758C95.2447 10.2402 95.2447 10.1336 95.2447 9.95589C95.2566 9.76633 95.2921 9.49385 95.3514 9.13843L95.3869 8.92519Z" fill="#313131"/>
<path d="M109.559 1.17713H113.291L114.766 13.6167H112.58L112.118 9.77818H108.048L106.431 13.6167H104.245L109.559 1.17713ZM111.887 7.73454L111.354 3.22077H110.838L108.937 7.73454H111.887Z" fill="#313131"/>
<path d="M115.709 8.92519H117.77L117.752 9.12066C117.752 9.21544 117.752 9.31022 117.752 9.405C117.752 10.0684 117.906 10.6193 118.214 11.0577C118.534 11.4842 119.139 11.6974 120.027 11.6974C120.359 11.6974 120.673 11.6737 120.969 11.6263C121.277 11.5671 121.549 11.4783 121.786 11.3598C122.023 11.2295 122.225 11.0636 122.391 10.8622C122.556 10.6489 122.663 10.3883 122.71 10.0803C122.734 9.96181 122.746 9.85519 122.746 9.76041C122.746 9.65379 122.728 9.52939 122.693 9.38723C122.669 9.23321 122.58 9.08512 122.426 8.94296C122.142 8.63493 121.763 8.40391 121.289 8.2499C120.815 8.08404 120.341 7.94779 119.867 7.84117C119.298 7.71085 118.765 7.52722 118.268 7.29027C117.794 7.05333 117.409 6.71569 117.113 6.27734C116.923 6.0167 116.822 5.78568 116.811 5.58428C116.799 5.37103 116.793 5.22294 116.793 5.14001C116.793 4.90307 116.811 4.67797 116.846 4.46472C116.941 3.89606 117.124 3.39848 117.397 2.97198C117.681 2.54548 118.031 2.19006 118.445 1.90573C118.86 1.6214 119.328 1.40815 119.849 1.26598C120.371 1.12382 120.916 1.05273 121.484 1.05273C122.799 1.05273 123.753 1.36076 124.345 1.97681C124.95 2.58102 125.252 3.34516 125.252 4.26924C125.252 4.4588 125.24 4.65428 125.216 4.85568L125.198 5.05116H123.137V4.89122C123.113 4.28701 122.953 3.83682 122.657 3.54064C122.373 3.23261 121.893 3.0786 121.218 3.0786C120.957 3.0786 120.696 3.1023 120.436 3.14968C120.187 3.19707 119.956 3.27408 119.743 3.3807C119.541 3.48733 119.37 3.62357 119.227 3.78943C119.097 3.95529 119.014 4.16262 118.979 4.41141C118.967 4.48249 118.961 4.54765 118.961 4.60689C118.961 4.79644 119.02 4.96823 119.139 5.12224C119.257 5.27625 119.452 5.41842 119.725 5.54874C119.867 5.61982 120.015 5.68498 120.169 5.74422C120.335 5.80345 120.513 5.86269 120.702 5.92193C120.892 5.98116 121.087 6.03447 121.289 6.08186C121.49 6.12925 121.692 6.18256 121.893 6.2418C122.284 6.36027 122.675 6.50836 123.066 6.68607C123.469 6.85193 123.818 7.07703 124.114 7.36136C124.41 7.63384 124.612 7.93002 124.719 8.2499C124.837 8.56977 124.896 8.88964 124.896 9.20952C124.896 9.41092 124.878 9.63009 124.843 9.86704C124.819 10.0447 124.778 10.2284 124.719 10.4179C124.659 10.6075 124.6 10.7911 124.541 10.9688C124.328 11.5019 124.025 11.9581 123.635 12.3372C123.255 12.7163 122.799 13.0362 122.266 13.2968C121.863 13.4864 121.461 13.6048 121.058 13.6522C120.655 13.7114 120.264 13.7411 119.885 13.7411C118.878 13.7411 117.995 13.5456 117.237 13.1546C116.479 12.7637 115.969 12.118 115.709 11.2176C115.614 10.8977 115.567 10.5838 115.567 10.2758C115.567 10.2402 115.567 10.1336 115.567 9.95589C115.578 9.76633 115.614 9.49385 115.673 9.13843L115.709 8.92519Z" fill="#313131"/>
</svg>
