<svg width="20" height="20" viewBox="0 0 20 20" fill="none" xmlns="http://www.w3.org/2000/svg">
<path d="M10 11.6665C11.3807 11.6665 12.5 10.5472 12.5 9.1665C12.5 7.78579 11.3807 6.6665 10 6.6665C8.61929 6.6665 7.5 7.78579 7.5 9.1665C7.5 10.5472 8.61929 11.6665 10 11.6665Z" stroke="#0062FF" stroke-width="1.66667" stroke-linecap="round" stroke-linejoin="round"/>
<path d="M14.7138 13.8806L11.178 17.4164C10.8655 17.7286 10.4418 17.904 10.0001 17.904C9.55836 17.904 9.13469 17.7286 8.82218 17.4164L5.28551 13.8806C4.3532 12.9482 3.71829 11.7603 3.46108 10.4671C3.20388 9.17394 3.33592 7.83352 3.84051 6.61536C4.34511 5.39721 5.19959 4.35604 6.29591 3.62351C7.39223 2.89098 8.68115 2.5 9.99968 2.5C11.3182 2.5 12.6071 2.89098 13.7034 3.62351C14.7998 4.35604 15.6542 5.39721 16.1588 6.61536C16.6634 7.83352 16.7955 9.17394 16.5383 10.4671C16.2811 11.7603 15.6462 12.9482 14.7138 13.8806V13.8806Z" stroke="#0062FF" stroke-width="1.66667" stroke-linecap="round" stroke-linejoin="round"/>
</svg>
