<?xml version="1.0" standalone="no"?>
<!DOCTYPE svg PUBLIC "-//W3C//DTD SVG 20010904//EN"
 "http://www.w3.org/TR/2001/REC-SVG-20010904/DTD/svg10.dtd">
<svg version="1.0" xmlns="http://www.w3.org/2000/svg"
 width="234.000000pt" height="234.000000pt" viewBox="0 0 234.000000 234.000000"
 preserveAspectRatio="xMidYMid meet">
<metadata>
Created by potrace 1.14, written by Peter Selinger 2001-2017
</metadata>
<g transform="translate(0.000000,234.000000) scale(0.100000,-0.100000)"
fill="#000000" stroke="none">
<path d="M81 1748 c-40 -133 -75 -247 -78 -254 -3 -9 61 -12 264 -12 147 0
283 -1 301 -1 35 -1 34 4 17 -91 -2 -14 -7 -45 -10 -70 -3 -25 -8 -52 -10 -60
-2 -8 -6 -37 -10 -65 -6 -51 -9 -70 -25 -165 -5 -30 -12 -73 -15 -95 -5 -36
-21 -141 -74 -482 l-17 -111 252 0 253 -1 5 27 c3 15 8 45 11 67 3 22 14 94
25 160 10 66 21 140 25 165 3 25 12 83 20 130 17 105 25 155 31 200 2 19 9 60
14 90 19 111 23 135 25 155 2 22 25 167 31 200 2 11 7 40 10 65 3 25 7 52 9
60 2 8 7 35 10 60 12 90 36 235 41 253 5 16 -24 17 -513 17 l-518 0 -74 -242z"/>
<path d="M1247 1983 c-3 -5 -8 -30 -11 -58 -4 -27 -8 -61 -11 -75 -8 -41 -35
-218 -51 -331 l-5 -36 545 0 c397 0 546 3 547 11 0 6 2 22 5 36 4 26 23 147
29 190 2 14 9 54 14 90 6 36 13 83 16 105 4 22 8 48 11 58 5 16 -25 17 -540
17 -300 0 -547 -3 -549 -7z"/>
<path d="M1167 1412 c-9 -2 -18 -10 -18 -18 -1 -8 -2 -17 -3 -21 -2 -9 -15
-89 -22 -138 -2 -16 -11 -75 -19 -130 -9 -55 -18 -121 -22 -147 l-6 -48 64 -1
c388 -3 1029 -3 1029 1 0 3 4 32 10 65 5 33 12 76 14 95 24 164 48 314 52 321
2 4 -1 11 -7 15 -11 7 -1038 12 -1072 6z"/>
<path d="M1070 847 c0 -2 -4 -28 -10 -58 -5 -30 -11 -70 -14 -89 -3 -19 -14
-100 -26 -180 -12 -80 -22 -152 -23 -160 -2 -13 64 -15 542 -15 536 0 544 0
547 20 7 52 15 104 19 126 15 84 55 336 55 346 0 10 -108 13 -545 13 -300 0
-545 -1 -545 -3z"/>
</g>
</svg>
