<svg width="44" height="33" viewBox="0 0 44 33" fill="none" xmlns="http://www.w3.org/2000/svg">
<path d="M27.0791 20.0522C27.0791 14.2632 28.4692 9.73096 31.2495 6.45557C34.0679 3.18018 38.0098 1.02832 43.0752 0V5.94141C39.2285 7.12207 36.6387 9.25488 35.3057 12.3398C34.5439 13.9775 34.2393 15.5581 34.3916 17.0815H43.3608V32.1064H27.0791V20.0522ZM0 20.0522C0 14.3394 1.35205 9.82617 4.05615 6.5127C6.79834 3.19922 10.7783 1.02832 15.9961 0V5.94141C12.1113 7.16016 9.50244 9.25488 8.16943 12.2256C7.48389 13.7871 7.19824 15.4058 7.3125 17.0815H16.2817V32.1064H0V20.0522Z" fill="#0BBA60"/>
</svg>
